<svg id="Layer_1" data-name="Layer 1" xmlns="http://www.w3.org/2000/svg" width="238.49mm" height="86.7mm" viewBox="0 0 676.04 245.77">
  <defs>
    <style>
      .cls-1 {
        fill: #da2128;
      }

      .cls-2 {
        fill: #939598;
      }

      .cls-3 {
        fill: #9f2138;
      }
    </style>
  </defs>
  <title>AnoudTechnologies_Logo_final</title>
  <g>
    <g>
      <path class="cls-1" d="M306.15,59.45a1.71,1.71,0,0,1,.37-.76,4.36,4.36,0,0,1,.79-.75,4.06,4.06,0,0,1,1-.56,2.86,2.86,0,0,1,1-.2h14.89a2.47,2.47,0,0,1,1.69.61,8.5,8.5,0,0,1,1.05,1.08l1.45,3.32,30.54,78.86a1.73,1.73,0,0,1-.17,1.89,2.86,2.86,0,0,1-2.21.73h-16.7a3.62,3.62,0,0,1-2.06-.5,3.16,3.16,0,0,1-1.14-1.66q-1.15-3-2.27-5.91c-.74-2-1.47-3.93-2.21-5.91H301.26c-.74,2-1.48,3.95-2.24,5.91s-1.5,3.93-2.24,5.91a2.92,2.92,0,0,1-3,2.16H276.65a2.81,2.81,0,0,1-1.83-.59c-.49-.38-.57-1-.26-1.74Zm10.58,24.93c-.73,2-1.48,4.11-2.23,6.4s-1.51,4.61-2.25,6.94-1.48,4.63-2.23,6.9-1.51,4.39-2.24,6.37h17.86Z" transform="translate(-26.06 -15.31)"/>
      <path class="cls-1" d="M363.74,59.74a2.66,2.66,0,0,1,.64-1.8,2.37,2.37,0,0,1,1.92-.76h19a4,4,0,0,1,1.69.41A3.68,3.68,0,0,1,388.52,59q7.39,11.94,14.67,23.53T417.9,106V59.39a2.91,2.91,0,0,1,.93-1.63,2.47,2.47,0,0,1,1.63-.58H437a3.08,3.08,0,0,1,2,.67,2.32,2.32,0,0,1,.81,1.89V141.4a2.05,2.05,0,0,1-.69,1.71,3,3,0,0,1-1.92.56H418.72a1.94,1.94,0,0,1-1.34-.53,8.48,8.48,0,0,1-1.22-1.4l-15.3-25.33q-7.58-12.52-15.36-25.33v50a2.77,2.77,0,0,1-.58,1.92,2.8,2.8,0,0,1-2.1.64H366.3a2.43,2.43,0,0,1-1.95-.73,2.67,2.67,0,0,1-.61-1.78Z" transform="translate(-26.06 -15.31)"/>
      <path class="cls-2" d="M447.86,100.51A44.19,44.19,0,0,1,453.92,78a45.07,45.07,0,0,1,6.95-9.06,44,44,0,0,1,9-7,45.85,45.85,0,0,1,10.62-4.48,44.57,44.57,0,0,1,23.67,0A45.71,45.71,0,0,1,514.81,62a44.43,44.43,0,0,1,9,7,43.7,43.7,0,0,1,7,9.06,45.9,45.9,0,0,1,4.48,10.66,44.68,44.68,0,0,1,0,23.7,44.74,44.74,0,0,1-4.48,10.6,43.69,43.69,0,0,1-7,9,45.15,45.15,0,0,1-9,7,44.09,44.09,0,0,1-10.65,4.49,45.39,45.39,0,0,1-23.67,0,44.21,44.21,0,0,1-10.62-4.49A45,45,0,0,1,453.92,123a43.18,43.18,0,0,1-4.49-10.6A44.47,44.47,0,0,1,447.86,100.51Zm22.52-.06a24.84,24.84,0,0,0,1.62,9,22.59,22.59,0,0,0,4.56,7.31,21.28,21.28,0,0,0,15.78,6.67,21.68,21.68,0,0,0,8.86-1.78,21.12,21.12,0,0,0,7-4.89,22.25,22.25,0,0,0,4.56-7.31,25.74,25.74,0,0,0,0-18,22.37,22.37,0,0,0-4.56-7.36,21.68,21.68,0,0,0-31.61,0A22.71,22.71,0,0,0,472,91.45,25,25,0,0,0,470.38,100.45Z" transform="translate(-26.06 -15.31)"/>
      <path class="cls-3" d="M566.31,109.18a19.73,19.73,0,0,0,1.2,7.31,13.84,13.84,0,0,0,3.14,4.9,12,12,0,0,0,4.55,2.77,16.86,16.86,0,0,0,5.39.87,14.9,14.9,0,0,0,5.51-1,12.79,12.79,0,0,0,4.55-3,14.51,14.51,0,0,0,3.09-5,19,19,0,0,0,1.14-6.82V59.74a2.51,2.51,0,0,1,.72-1.8,2.58,2.58,0,0,1,1.95-.76h17a2.74,2.74,0,0,1,2.09.79,2.46,2.46,0,0,1,.76,1.77v49.1q0,10.18-3,17.12a29.53,29.53,0,0,1-8,11.16,30.93,30.93,0,0,1-11.73,6,52.56,52.56,0,0,1-14,1.84,51,51,0,0,1-14-1.9,31,31,0,0,1-11.75-6.17,30,30,0,0,1-8.06-11.18q-3-6.9-3-16.92V59.74a2.67,2.67,0,0,1,.66-1.77,2.09,2.09,0,0,1,1.66-.79h17.41a3,3,0,0,1,1.82.73,2.21,2.21,0,0,1,1,1.83Z" transform="translate(-26.06 -15.31)"/>
      <path class="cls-3" d="M702.09,100.51a42.9,42.9,0,0,1-1.57,11.74A41.64,41.64,0,0,1,696,122.61,43.07,43.07,0,0,1,680.13,138a45.29,45.29,0,0,1-10.61,4.22,46.75,46.75,0,0,1-11.82,1.49H629a3.7,3.7,0,0,1-1.86-.47,2.1,2.1,0,0,1-.81-2V59.86a2.84,2.84,0,0,1,.67-2,2.5,2.5,0,0,1,2-.76H657.7a45.48,45.48,0,0,1,11.79,1.52,44.57,44.57,0,0,1,10.58,4.3,45.43,45.43,0,0,1,9,6.7,41.62,41.62,0,0,1,7,8.74,44,44,0,0,1,4.47,10.42A42.24,42.24,0,0,1,702.09,100.51ZM648.86,78v44.79h4.89c.89,0,1.76,0,2.62-.09l2.56-.2a23.37,23.37,0,0,0,8.14-2.13,22.71,22.71,0,0,0,6.61-4.66A21,21,0,0,0,678.1,109a22.38,22.38,0,0,0,1.6-8.51,21.72,21.72,0,0,0-1.84-9,22.11,22.11,0,0,0-12.33-11.76,24.26,24.26,0,0,0-9-1.66Z" transform="translate(-26.06 -15.31)"/>
    </g>
    <g>
      <path class="cls-3" d="M277.74,233.4l7.51,23.85,7.42-23.85h3.13l7.51,23.85,7.43-23.85H314l-9.19,27.37h-3.21l-7.39-23.19-7.47,23.19h-3.2l-9.16-27.37Z" transform="translate(-26.06 -15.31)"/>
      <path class="cls-3" d="M333.47,251.62H316.66a7.27,7.27,0,0,0,7.47,6.72,8.59,8.59,0,0,0,6.37-2.62l1.68,1.76a10.93,10.93,0,0,1-8.29,3.4c-6.06,0-10.24-4.26-10.24-10.4s4.22-10.36,10.2-10.4C330.5,240.08,333.79,244.66,333.47,251.62Zm-2.73-2.43a6.5,6.5,0,0,0-6.89-6.57,6.94,6.94,0,0,0-7.19,6.57Z" transform="translate(-26.06 -15.31)"/>
      <path class="cls-3" d="M368.44,233.4v2.89H353v9.19h13.8v2.85H353v9.54H369v2.9H349.87V233.4Z" transform="translate(-26.06 -15.31)"/>
      <path class="cls-3" d="M393.75,248.1v12.67H390.7V248.88c0-3.68-2.19-5.87-5.83-5.87-4.07,0-6.57,2.74-6.92,6.73v11H374.9V240.2H378v4.53c1.45-3.12,4.22-4.61,8-4.65C390.85,240.08,393.75,243.09,393.75,248.1Z" transform="translate(-26.06 -15.31)"/>
      <path class="cls-3" d="M405.84,242.62c-2.31,0-4.07.82-4.07,2.78,0,4.65,11.5,2.27,11.5,9.66,0,4-3.6,5.82-7.55,5.82a11.63,11.63,0,0,1-7.9-2.89l1.18-2.23a10.36,10.36,0,0,0,6.84,2.62c2.42,0,4.38-.94,4.42-3,.11-5-11.42-2.46-11.38-9.74,0-3.91,3.4-5.59,7.15-5.59a12.26,12.26,0,0,1,6.57,1.88l-1.17,2.35A10.82,10.82,0,0,0,405.84,242.62Z" transform="translate(-26.06 -15.31)"/>
      <path class="cls-3" d="M436.15,240.2v20.57h-3v-4.66c-1.37,3.21-4.11,4.73-7.82,4.77-4.81,0-7.71-3.05-7.71-8V240.2h3.05v11.89c0,3.67,2.15,5.86,5.71,5.86,4.26-.08,6.77-3.2,6.77-7.66V240.2Z" transform="translate(-26.06 -15.31)"/>
      <path class="cls-3" d="M454,240.08v3c-4.35-.08-7,2.62-7.39,6.77v10.95h-3.05V240.2h3.05v4.57A7.68,7.68,0,0,1,454,240.08Z" transform="translate(-26.06 -15.31)"/>
      <path class="cls-3" d="M475.89,251.62H459.08a7.26,7.26,0,0,0,7.46,6.72,8.61,8.61,0,0,0,6.38-2.62l1.68,1.76a11,11,0,0,1-8.29,3.4c-6.06,0-10.25-4.26-10.25-10.4s4.23-10.36,10.21-10.4C472.92,240.08,476.2,244.66,475.89,251.62Zm-2.74-2.43a6.49,6.49,0,0,0-6.88-6.57,6.93,6.93,0,0,0-7.19,6.57Z" transform="translate(-26.06 -15.31)"/>
      <path class="cls-3" d="M483.21,259.09a1.9,1.9,0,1,1-1.88-2A1.9,1.9,0,0,1,483.21,259.09Z" transform="translate(-26.06 -15.31)"/>
      <path class="cls-3" d="M509.76,251.27v9.5h-3.09v-9.43L496.08,233.4h3.24l8.88,14.34L517,233.4h3.21Z" transform="translate(-26.06 -15.31)"/>
      <path class="cls-3" d="M541,250.44a10.44,10.44,0,0,1-20.88,0c0-6.1,4.34-10.36,10.44-10.36S541,244.34,541,250.44Zm-17.83,0c0,4.62,3.08,7.74,7.39,7.74s7.39-3.12,7.39-7.74-3.09-7.7-7.39-7.7S523.15,246,523.15,250.48Z" transform="translate(-26.06 -15.31)"/>
      <path class="cls-3" d="M564.21,240.2v20.57h-3.05v-4.66c-1.37,3.21-4.11,4.73-7.82,4.77-4.81,0-7.7-3.05-7.7-8V240.2h3.05v11.89c0,3.67,2.15,5.86,5.71,5.86,4.26-.08,6.76-3.2,6.76-7.66V240.2Z" transform="translate(-26.06 -15.31)"/>
      <path class="cls-3" d="M585.92,233.4v27.37H582.8V233.4Z" transform="translate(-26.06 -15.31)"/>
      <path class="cls-3" d="M612.64,248.1v12.67h-3.06V248.88c0-3.68-2.18-5.87-5.82-5.87-4.07,0-6.57,2.74-6.92,6.73v11h-3.05V240.2h3.05v4.53c1.44-3.12,4.22-4.61,8-4.65C609.74,240.08,612.64,243.09,612.64,248.1Z" transform="translate(-26.06 -15.31)"/>
      <path class="cls-3" d="M624.73,242.62c-2.31,0-4.07.82-4.07,2.78,0,4.65,11.5,2.27,11.5,9.66,0,4-3.6,5.82-7.55,5.82a11.61,11.61,0,0,1-7.9-2.89l1.17-2.23a10.4,10.4,0,0,0,6.85,2.62c2.42,0,4.37-.94,4.41-3,.12-5-11.42-2.46-11.38-9.74,0-3.91,3.41-5.59,7.16-5.59a12.29,12.29,0,0,1,6.57,1.88l-1.17,2.35A10.85,10.85,0,0,0,624.73,242.62Z" transform="translate(-26.06 -15.31)"/>
      <path class="cls-3" d="M655,240.2v20.57h-3v-4.66c-1.37,3.21-4.11,4.73-7.82,4.77-4.81,0-7.71-3.05-7.71-8V240.2h3v11.89c0,3.67,2.15,5.86,5.71,5.86,4.26-.08,6.77-3.2,6.77-7.66V240.2Z" transform="translate(-26.06 -15.31)"/>
      <path class="cls-3" d="M672.91,240.08v3c-4.34-.08-7,2.62-7.39,6.77v10.95h-3V240.2h3v4.57A7.7,7.7,0,0,1,672.91,240.08Z" transform="translate(-26.06 -15.31)"/>
      <path class="cls-3" d="M694.77,251.62H678a7.27,7.27,0,0,0,7.47,6.72,8.59,8.59,0,0,0,6.37-2.62l1.69,1.76a11,11,0,0,1-8.3,3.4c-6.06,0-10.24-4.26-10.24-10.4s4.22-10.36,10.21-10.4C691.8,240.08,695.09,244.66,694.77,251.62ZM692,249.19a6.5,6.5,0,0,0-6.88-6.57,7,7,0,0,0-7.2,6.57Z" transform="translate(-26.06 -15.31)"/>
      <path class="cls-3" d="M702.09,259.09a1.9,1.9,0,1,1-1.87-2A1.9,1.9,0,0,1,702.09,259.09Z" transform="translate(-26.06 -15.31)"/>
    </g>
    <g>
      <path class="cls-2" d="M299.66,162.56v4.65h-10v26.1h-5.32v-26.1h-10v-4.65Z" transform="translate(-26.06 -15.31)"/>
      <path class="cls-2" d="M333.2,162.56v4.65H316v8.31h15.41v4.65H316v8.48h17.76v4.66H310.66V162.56Z" transform="translate(-26.06 -15.31)"/>
      <path class="cls-2" d="M360.74,167a10.84,10.84,0,1,0,0,21.66,13.21,13.21,0,0,0,8.79-3.65l3.16,3.43a18.16,18.16,0,0,1-12.22,5.05c-9.24,0-16.4-6.81-16.4-15.64s7.25-15.46,16.58-15.46a17.64,17.64,0,0,1,12,4.74L369.53,171A12.45,12.45,0,0,0,360.74,167Z" transform="translate(-26.06 -15.31)"/>
      <path class="cls-2" d="M389.87,162.56v13.35h16.72V162.56h5.32v30.75h-5.32V180.57H389.87v12.74h-5.32V162.56Z" transform="translate(-26.06 -15.31)"/>
      <path class="cls-2" d="M431.88,162.56l16.9,22.09V162.56H454v30.75h-5.23L432,171.26v22.05h-5.31V162.56Z" transform="translate(-26.06 -15.31)"/>
      <path class="cls-2" d="M499.63,177.93c0,8.79-7.3,15.6-16.72,15.6s-16.72-6.81-16.72-15.6,7.3-15.5,16.72-15.5S499.63,169.15,499.63,177.93Zm-28,0A11.17,11.17,0,0,0,483,188.87a10.9,10.9,0,1,0-11.36-10.94Z" transform="translate(-26.06 -15.31)"/>
      <path class="cls-2" d="M517.09,162.56v26.05h13.65v4.7h-19V162.56Z" transform="translate(-26.06 -15.31)"/>
      <path class="cls-2" d="M573.12,177.93c0,8.79-7.3,15.6-16.72,15.6s-16.72-6.81-16.72-15.6,7.3-15.5,16.72-15.5S573.12,169.15,573.12,177.93Zm-28,0a11.18,11.18,0,0,0,11.36,10.94,10.9,10.9,0,1,0-11.36-10.94Z" transform="translate(-26.06 -15.31)"/>
      <path class="cls-2" d="M605.58,178.2h4.64v11.33a21.77,21.77,0,0,1-12.26,4c-9.33,0-16.59-6.81-16.59-15.6s7.35-15.5,16.91-15.5a19.27,19.27,0,0,1,12.12,4.3l-3,3.82a13.92,13.92,0,0,0-9.1-3.51c-6.45,0-11.5,4.79-11.5,10.89s5.1,10.94,11.54,10.94a15,15,0,0,0,7.26-2.11Z" transform="translate(-26.06 -15.31)"/>
      <path class="cls-2" d="M629.52,162.56v30.75H624.2V162.56Z" transform="translate(-26.06 -15.31)"/>
      <path class="cls-2" d="M666.8,162.56v4.65H649.58v8.31H665v4.65H649.58v8.48h17.76v4.66H644.26V162.56Z" transform="translate(-26.06 -15.31)"/>
      <path class="cls-2" d="M690.24,167.21c-3.11,0-5.14,1.15-5.14,3.21,0,6.72,17,3.12,17,14.19,0,5.49-5,8.87-11.89,8.87a19.66,19.66,0,0,1-12.89-4.87l2.29-4.48a16.88,16.88,0,0,0,10.69,4.48c3.69,0,5.9-1.36,5.9-3.74,0-6.85-17-3-17-14,0-5.27,4.65-8.56,11.5-8.56a20.92,20.92,0,0,1,11,3.16l-2.21,4.57A19.25,19.25,0,0,0,690.24,167.21Z" transform="translate(-26.06 -15.31)"/>
    </g>
    <g>
      <g>
        <path class="cls-1" d="M259.53,193.53" transform="translate(-26.06 -15.31)"/>
        <path class="cls-1" d="M241.83,183.25l0,0-93-161.15c-.09-.14-.2-.27-.29-.4a13.56,13.56,0,0,0-23,.07,3.88,3.88,0,0,0-.23.33l-5.22,9,93.78,162.42h45.77A20.4,20.4,0,0,1,241.83,183.25Z" transform="translate(-26.06 -15.31)"/>
      </g>
      <g>
        <path class="cls-1" d="M194.45,183.23h0L125.05,63.08c-.09-.16-.21-.29-.31-.44a13.57,13.57,0,0,0-23,.17,2.61,2.61,0,0,0-.19.27l-5.22,9L166.4,193.53h45.77A20.4,20.4,0,0,1,194.45,183.23Z" transform="translate(-26.06 -15.31)"/>
        <path class="cls-1" d="M212.17,193.53" transform="translate(-26.06 -15.31)"/>
      </g>
      <g>
        <path class="cls-2" d="M147.17,183.36h0L101.38,104.1c0-.06-.08-.1-.11-.16a13.6,13.6,0,0,0-23.17-.22c-.09.13-.19.24-.27.38l-5.21,9L119,193.53h45.8A20.47,20.47,0,0,1,147.17,183.36Z" transform="translate(-26.06 -15.31)"/>
        <path class="cls-2" d="M164.83,193.53" transform="translate(-26.06 -15.31)"/>
      </g>
      <g>
        <path class="cls-3" d="M99.88,183.55h0l-22.2-38.43c-.09-.15-.2-.28-.3-.42a13.58,13.58,0,0,0-22.92,0,4,4,0,0,0-.3.42l-4.82,8.34,23.14,40.07h45A20.47,20.47,0,0,1,99.88,183.55Z" transform="translate(-26.06 -15.31)"/>
        <path class="cls-3" d="M117.43,193.53" transform="translate(-26.06 -15.31)"/>
      </g>
      <g>
        <path class="cls-3" d="M30.93,185.15Z" transform="translate(-26.06 -15.31)"/>
        <path class="cls-3" d="M54,185.15h0S54,185.1,54,185.15Z" transform="translate(-26.06 -15.31)"/>
        <path class="cls-3" d="M54.05,185.15h0a13.61,13.61,0,0,0-23.12,0l-4.87,8.38H70.57A20.55,20.55,0,0,1,54.05,185.15Z" transform="translate(-26.06 -15.31)"/>
        <path class="cls-3" d="M70.57,193.53" transform="translate(-26.06 -15.31)"/>
      </g>
    </g>
  </g>
</svg>
