<svg id="visual" viewBox="0 0 900 600" width="900" height="600" xmlns="http://www.w3.org/2000/svg" xmlns:xlink="http://www.w3.org/1999/xlink" version="1.1"><rect x="0" y="0" width="900" height="600" fill="#0066ff"></rect><g transform="translate(885.5209176188138 -72.24389181819646)"><path d="M288.3 -359.3C383.4 -327.7 477 -256.6 505.9 -165C534.8 -73.4 499 38.5 451.2 134.6C403.4 230.6 343.7 310.7 266.5 383.3C189.3 455.8 94.6 520.9 -9.7 534.3C-114 547.6 -228.1 509.2 -301.9 435.6C-375.8 361.9 -409.5 253 -441.1 145.7C-472.7 38.4 -502.2 -67.2 -479 -161C-455.9 -254.9 -380.2 -337 -291.6 -370.7C-203 -404.4 -101.5 -389.7 -2.4 -386.3C96.6 -383 193.2 -390.9 288.3 -359.3" fill="#62a1fe"></path></g></svg>