<?xml version="1.0" encoding="utf-8"?>
<!-- Generator: Adobe Illustrator 24.0.2, SVG Export Plug-In . SVG Version: 6.00 Build 0)  -->
<svg version="1.1" id="Layer_1" xmlns="http://www.w3.org/2000/svg" xmlns:xlink="http://www.w3.org/1999/xlink" x="0px" y="0px"
	 viewBox="0 0 521.8 245" style="enable-background:new 0 0 521.8 245;" xml:space="preserve">
<style type="text/css">
	.st0{fill:#AB0634;}
</style>
<g>
	<g>
		<g>
			<path class="st0" d="M47.5,158.6c0.7-0.8,1.4-1.5,2-2.2c-0.5-0.4-1.2-1-2.3-1.7c-1.3-0.9-2-1.4-2.2-1.4c-0.3,0-1,0.6-2.2,1.7
				c-1.1,1.2-1.8,2-2,2.4c2.2,1.8,3.7,2.7,4.3,2.7C45.7,160.1,46.5,159.5,47.5,158.6z"/>
			<path class="st0" d="M111.2,177.5c-0.5,0.5-0.9,0.8-1.2,0.9c-0.6,0-1.7-0.7-3.3-2c-1.4,1.4-2.3,2.5-2.7,3.3
				c1,0.8,2.2,1.6,3.7,2.2c0.9-1,1.5-1.8,2-2.2l3.6,2.2c0.6-0.3,1.5-1.4,2.7-3.3l-3.8-2.3C112.2,176.5,111.8,176.9,111.2,177.5z"/>
			<path class="st0" d="M130.3,162c-0.2-0.5-0.3-0.8-0.4-1c-0.2-0.2-0.5-0.4-0.9-0.4c-1.7,0-3.5,0.8-5.3,2.5
				c-1.7,1.5-2.8,3.1-3.4,4.9c-0.2,0.5-0.3,0.8-0.5,1h-1.5h-1.4h-0.6c-1.5-0.3-2.2-0.9-2-2l0.5-3.8V161c-0.9,0.8-1.7,1.7-2.5,2.6
				c-0.8,0.9-1.1,2-1.1,3.3c0,1.1-0.1,1.8-0.2,2.1h-8.6v0H98h-1.5H92h-1.5H86h-1.5H80h-1.5H74h-1.5H68h-1.5H62h-1.5H56v0h-1.5
				c-0.9,0-1.7-0.6-2.4-1.8c-0.7-1.2-1.4-2.4-2.1-3.7l-2.9,4.8c0.5,0.5,1.2,1.7,2,3.4c0.8,1.7,1.2,3,1.2,3.6c0,0.5-1.1,0.9-3.1,1.3
				c-1.6,0.3-2.9,0.5-3.9,0.5c-1.7,0-3.1-0.3-4.2-1c-1.3-0.8-1.9-2-1.9-3.6c0-1.2,0.4-2.3,1-3.4c0.7-0.9,1.4-1.9,2.1-2.8
				c-1.3-0.3-2.8,1.1-4.3,4.3c-1.4,2.8-2.1,5.1-2.1,6.6c0,1.9,0.9,3.2,2.8,4.1c1.4,0.7,3.2,1,5.3,1c3.1,0,5.4-0.6,7.1-1.9
				c1.4-1.1,2.7-3.2,3.8-6h1.7H56h4.5H62h4.5H68h4.5H74h4.5H80h4.5H86h4.5H92h4.5H98h4.3h1.6h5.8l1.8-3c0.5,2,1.5,3,2.9,3h2.5h1.4
				h0.9c0.3,0,0.7-0.4,1.1-1.3c0.3-0.5,0.6-1.1,0.8-1.7c0.2-0.3,0.3-0.4,0.5-0.4l7.5,2.8c0.6-0.4,1.2-1.2,1.8-2.4
				c0.7-1.2,1-2.1,1-2.7c0-0.7-0.2-1.8-0.7-3.3C131,164.2,130.7,163.1,130.3,162z M124.2,166.1c0.9-0.6,1.5-0.8,2-0.8
				c0.4,0,0.7,0.3,0.9,0.9c0,0.1,0.2,0.5,0.4,1.3L124.2,166.1z"/>
			<path class="st0" d="M139.6,152.4c1.9-1.3,3.5-1.9,4.7-1.9h0.2c0.3-0.4,0.6-0.8,0.8-1.4c-0.8,0-1.7,0-2.5,0
				c-1.1-0.1-1.9-0.4-2.4-0.9c0.8-0.4,1.2-0.6,1.3-0.6c0.2,0,0.6,0.2,1.3,0.7c0.5-0.8,0.8-1.2,0.8-1.2c0-0.6-0.4-0.9-1.3-0.9
				c-0.9,0-1.7,0.4-2.3,1.1c-0.6,0.7-0.9,1.5-0.9,2.4v0.1c0.9,0.4,1.5,0.7,2,0.8c-0.4,0.3-0.7,0.5-1.1,0.8
				C139.9,151.7,139.6,152,139.6,152.4z"/>
			<path class="st0" d="M206.7,156.8c0.9-0.8,1.7-1.5,2.2-2c2.5,1.4,3.9,2.1,4.1,2.1c0.5,0,1.5-1,3-3.2l-4.2-2.3
				c0,0-0.4,0.4-1.3,1.2c-0.7,0.6-1.1,0.9-1.2,0.9c-0.6,0-1.8-0.7-3.6-2.1c-0.5,0.3-1,0.8-1.6,1.5c-0.4,0.4-0.8,0.9-1.4,1.7
				c0.5,0.4,1.1,0.8,1.9,1.3C205.7,156.5,206.3,156.8,206.7,156.8z"/>
			<path class="st0" d="M231.9,151.4V151c-0.5,0.2-1.2,1-2.1,2.5c-0.7,1.2-1.3,2.3-1.6,3.1c0.6,0.6,1.1,1.1,1.5,1.4
				c0.3,1.7,0.7,3.4,1,5.1c0.4,2.1,0.6,3.8,0.6,5.1c0,0-0.1,0.2-0.2,0.7h-3.7H226h-1.1c-0.3-0.2-0.7-2.9-1.2-8.2
				c-0.6-5.8-1-9-1.1-9.6l-0.2-0.1l-3.3,5.1c0.8,6.2,1.3,10.5,1.6,12.8h-3.1h-1.4h0c-1.8-0.1-2.7-0.8-2.7-2c0-0.3,0.1-0.9,0.2-1.8
				c0.2-0.8,0.2-1.4,0.2-1.8V161c-0.6,0.6-1.2,1.2-1.8,1.8c-0.8,0.8-1.3,1.4-1.6,2.1c-0.1,0.2-0.2,0.9-0.2,1.9c0,1-0.1,1.8-0.3,2.2
				h-8.5v0h-4.8h-1.5h-4.5h-1.5h-4.5h-1.5h-4.5h-1.5h-4.5h-1.5h-4.5h-1.5h-4.5h-1.5h-4.5h-1.5h-3.9v0h-2.1c-1,0-1.6-0.2-1.7-0.3
				c-0.2-1.8-0.5-4.7-0.8-8.7c-0.3-3.7-0.6-6.6-0.9-8.6c-1.4,1.8-2.5,3.1-3.1,4.1l1.6,18.9h5.1h2h3.9h1.5h4.5h1.5h4.5h1.5h4.5h1.5
				h4.5h1.5h4.5h1.5h4.5h1.5h4.5h1.5h4.8h1.2h6.2l1.8-3.2c0.6,2.1,1.8,3.2,3.4,3.2h2h1.4h1.4c0.8-1.4,1.4-2.5,1.8-3.2
				c0,0.6,0,1.2,0,1.8c0.1,0.7,0.4,1.1,0.9,1.4h4.3h1.4h4.9c0.6,0,1.1-1,1.6-2.8c0.4-1.7,0.6-2.9,0.5-3.6l-0.5-6.2l0-0.5
				c0.3-0.5,1-1.2,1.9-2.3c0.9-1,1.4-1.7,1.8-2.3c-2.2-1.2-3.4-1.9-3.7-2C232.5,153.5,231.8,152.5,231.9,151.4z"/>
			<path class="st0" d="M350,153l4.1,2.1c0.5-0.3,1.1-0.8,1.7-1.5c0.5-0.6,0.9-1.2,1.4-1.7l-4.2-2.3c-1.2,0.9-2,1.6-2.6,2.1
				c-0.2,0-0.9-0.3-1.9-0.9c-1-0.6-1.6-1-1.8-1.2c-1.5,1.4-2.5,2.5-3.1,3.2c2.2,1.5,3.6,2.2,4.2,2.2L350,153z"/>
			<path class="st0" d="M355,156.6c-1.5,0-3.2,1-5,2.9c-1.8,2-2.7,3.7-2.7,5.2c0,0.9,0.5,1.7,1.5,2.4c1,0.6,1.9,0.9,2.9,0.9
				c1.9,0,3.5-0.8,4.6-2.4c0.6,0.8,0.9,1.9,0.9,3.1c0,0.1,0,0.2,0,0.2h-13.5h-1.7h-1.5c0,0,0.3-0.7,0.8-1.8
				c-0.3-1.2-1.1-2.5-2.4-3.8c-1.4-1.4-2.7-2.1-3.8-2.1c-1.2,0-3.5,0.8-6.9,2.4c-2.8,1.4-5.1,2.6-6.7,3.6v-0.2c0-0.4,0.2-1.1,0.5-2
				c0.3-1,0.5-1.7,0.5-2.1c0-0.7-0.1-1.7-0.2-3c0.8,0,1.4-0.5,2.1-1.6c0.4-0.9,0.8-1.7,1.2-2.6c-3-1.3-4.8-3-5.2-4.9
				c-0.5,0.4-1.1,1-1.9,2c-0.8,1.1-1.2,1.9-1.2,2.4c0,0.4,0.1,0.7,0.4,1c0.3,0.4,0.5,0.6,0.6,0.7c0.2,0.6,0.5,2.4,0.8,5.2
				c0.3,2.7,0.5,4.5,0.5,5.3c0,1-0.7,1.4-2.2,1.3H316v0h-4.8h-1.5h-4.5h-1.5h-4.5h-1.5h-4.5h-1.5h-4.5h-1.5h-4.5h-1.5h-4.5h-1.5
				h-4.5h-1.5h-4.3v0h-1.8c-1.4,0-2.5-0.7-3.5-2.1c-0.8-1.2-1.6-2.5-2.4-3.7c-0.9,1.1-1.8,2.5-2.6,4.2c1.8,2,2.8,3.4,2.8,4.1
				c0,1.2-1.4,2.7-4.2,4.3c-2.7,1.5-4.7,2.3-6.2,2.3c-0.8,0-1.8-0.2-2.8-0.7c-1.1-0.4-1.6-0.7-1.5-0.7h-0.3c0.4,0.8,1.9,1.8,4.6,3
				c2.5,1.2,4.4,1.8,5.5,1.8c1.5,0,3.2-1,4.7-2.9c1.2-1.4,2.2-3.1,3-5.1l0.1-0.1c0.6,0.5,1.4,0.7,2.2,0.7h0.9h1.7h4.3h1.5h4.5h1.5
				h4.5h1.5h4.5h1.5h4.5h1.5h4.5h1.5h4.5h1.5h4.5h1.5h4.8h1.2h25h1.7h15.5c0.3-0.7,0.6-1.9,0.9-3.4c0.2-1.4,0.4-2.6,0.4-3.5
				c0-1.9-0.5-4.1-1.4-6.4C358,158.1,356.6,156.6,355,156.6z M353.5,163.2c-0.7,0-1.5-0.3-2.4-1.1c0.5-0.9,1-1.3,1.6-1.3
				c0.4,0,0.8,0.3,1.3,0.9c0.4,0.4,0.8,0.9,1.1,1.3C354,163.2,353.5,163.2,353.5,163.2z M324.1,169c3.4-2.3,6.1-3.4,8.3-3.4
				c0.8,0,1.7,0.4,2.7,1.2c1,0.8,1.7,1.5,2,2.3H324.1z"/>
			<path class="st0" d="M374.1,153.4l4.1,2.1c0.5-0.3,1-0.8,1.6-1.5c0.5-0.5,1-1.1,1.4-1.7L377,150c-0.5,0.5-1.4,1.2-2.5,2.2
				c-0.4-0.1-1-0.4-1.9-0.9c-0.6-0.4-1.2-0.8-1.8-1.2c-1,0.9-2,2-3,3.2c1.4,1,2.8,1.8,4.1,2.3L374.1,153.4z"/>
			<path class="st0" d="M400.4,157.6l9.4-2.8l1.4-4.8l-13.7,3.3l-2.1,6.5l3.9,4.3l0.7-0.8c1.6,1.2,3.6,3.1,5.9,5.6h-11.1v0h-5v0
				h-2.1c-0.9-0.1-1.7-0.5-2.4-1c-0.4-1.6-1-4-1.5-7.2c-0.6-3.3-1.1-5.6-1.5-7.2l-3,5c0.2,0.8,0.4,1.3,0.4,1.5c-1.7,1-3.4,1.9-5,2.9
				c-1.3,0.8-2.3,1.8-3,3c-0.7,1.3-1.3,3.2-1.8,5.7c0.9,0,2.4,0.3,4.4,0.7c1.9,0.5,3.3,0.7,4.3,0.7c0.7,0,1.3-0.5,1.8-1.6
				c0.6-1.3,1.1-2.1,1.4-2.2c0.3,1.1,0.7,2.2,1,3.2c0.6,1.2,1.4,1.8,2.5,1.8h3.3h1.4h5h1h13l1.4-5.6
				C410.5,167.8,407.2,164,400.4,157.6z M376,166.3c0.1-0.3,0.4-0.5,0.8-0.7c0.4-0.2,0.8-0.4,1.1-0.6c0.4-0.2,0.7-0.5,1.1-1
				c0.3-0.5,0.7-0.9,1-1.3l0.9,4.2L376,166.3z"/>
			<path class="st0" d="M485.1,158.4l4.1,2.2c0.8-0.4,1.8-1.5,3.1-3.4l-4.2-2.4c-0.1,0.1-0.5,0.5-1.3,1.2c-0.6,0.5-1.1,0.8-1.4,1
				c-1.8-0.8-3-1.5-3.7-2.1c-0.9,0.8-2,1.8-3.2,3.2c1.1,0.9,2.6,1.7,4.3,2.3L485.1,158.4z"/>
			<path class="st0" d="M483.6,154.5c0.8,0.7,1.4,1.1,1.5,1.1c0.3,0,0.8-0.4,1.6-1c0.8-0.6,1.3-1.1,1.4-1.4c-1.7-1.7-2.7-2.6-3-2.6
				c-0.2,0-0.7,0.4-1.5,1.2c-0.9,0.8-1.3,1.3-1.3,1.5C482.3,153.4,482.7,153.8,483.6,154.5z"/>
			<path class="st0" d="M492.3,164.8c-1,1.2-1.5,1.9-1.5,2.4c0,0.4,0.1,0.8,0.2,1.2c0,0.4,0,0.6-0.1,0.6h-3.3
				c-0.1-0.2,0.4-2.1,1.3-5.6h-0.3c-1.8,1.6-3,3.3-3.4,5.3l-0.1,0.3h-2.7h-1.1h-0.8c0.1-0.5,0.4-1.5,0.8-3c0.4-1.2,0.6-2.1,0.6-2.8
				l0-0.5l-0.1-0.1c-0.6,0.7-1.3,1.4-1.9,2.1c-0.9,1-1.4,1.7-1.4,2.1c0,1-0.2,1.7-0.5,2.2h-4.9v0h-4.8h-1.5h-4.5h-1.5h-4.5h-1.5
				h-4.5h-1.5h-4.5h-1.5h-4.5h-1.5h-4.3v0h-1.8c-1.4,0-2.5-0.7-3.5-2.1c-0.8-1.2-1.7-2.5-2.5-3.7c-0.9,1.1-1.7,2.5-2.7,4.2
				c1.9,2,2.8,3.4,2.8,4.1c0,1.2-1.4,2.7-4.2,4.3c-2.6,1.5-4.7,2.3-6.1,2.3c-0.8,0-1.8-0.2-2.8-0.7c-1.1-0.4-1.6-0.7-1.5-0.7h-0.3
				c0.4,0.8,1.9,1.8,4.6,3c2.6,1.2,4.4,1.8,5.5,1.8c1.6,0,3.2-1,4.8-2.9c1.2-1.4,2.2-3.1,3.1-5.1l0-0.1c0.6,0.5,1.3,0.7,2.2,0.7h0.9
				h1.7h4.3h1.5h4.5h1.5h4.5h1.5h4.5h1.5h4.5h1.5h4.5h1.5h4.8h1.2h2.5c0.2,0,0.5-0.2,0.8-0.5c0.2-0.3,0.5-0.5,0.7-0.8
				c0.3,0.4,0.5,0.8,0.5,1.3h2.5h1.1h2.2c0.3-0.4,0.5-0.6,0.7-0.8c0.2,0.2,0.4,0.4,0.6,0.8h6.8c0.4-0.9,0.8-1.8,1.1-2.7
				c0.4-1,0.6-2,0.6-2.8v-6C493.8,163.1,493.2,163.8,492.3,164.8z"/>
		</g>
		<g>
			<path class="st0" d="M264.8,23.4h24.7v3.7h-9.2c-2.5,0-4.5,1.1-4.5,3.7v20.5v26.4c0,2.7,2,3.8,4.5,3.8h9.2v3.7h-24.7h-24.4v-3.7
				h9.2c2.5,0,4.5-1.1,4.5-3.8V51.4V30.9c0-2.6-1.9-3.7-4.5-3.7h-9.2v-3.7H264.8z"/>
			<path class="st0" d="M359.6,18.2c30.4-1.9,62.3,4.4,62.3,4.4l4.7,4.7C286,4.4,318.9,116.1,442.4,70.9l1,1
				c-49.3,29.7-137.7,20.7-138-19.1C305.4,27.5,332.4,19.8,359.6,18.2z"/>
			<path class="st0" d="M184.3,89c50.1,9.9,77.6,42.2,135.3,21.8c-56.9,36-111.9-6.6-162.3-19.3c-35.8,0.2-73.2-11.8-80.1-37.3h23.4
				c-2.4,39.1,100.4,38.3,99.4,1.1c0,0-1.9-42.5-89.6-23.8c-1.4,0.3-1.6-1.7-0.1-2.4C144.1,12.3,225.2,14.2,228,54.1
				C228.8,72.3,209.5,84.1,184.3,89z"/>
		</g>
	</g>
	<g>
		<path class="st0" d="M49,218.9c-8.8,0-12.1-7-12.1-12.4c0-8,6.1-10.6,10.7-10.6c8.6,0,11.9,6.5,11.9,12.5
			C59.5,215.6,54.4,218.9,49,218.9z M48.4,194.8c-9.2,0-16,5.6-16,12.9c0,5.2,3.6,9.5,9.6,11.4c1.6,0.5,3.2,0.7,4.4,0.9
			c1.3,0.2,1.6,0.3,3,1.3c1.7,1.3,4.6,3.5,8.3,4.9c2.7,1,5.2,1.3,7.3,1.3c1.6,0,3.6-0.3,5-0.9c0.1-0.2,0.1-0.5-0.2-0.6
			c-0.6,0.2-1.7,0.3-2.2,0.3c-1,0-2.5-0.1-4.2-0.5c-3.6-1-7.7-4-10-5.8c-0.3-0.2-0.4-0.3-0.3-0.5c6.3-1.5,10.9-6.2,10.9-12.2
			C64,200.9,58.8,194.8,48.4,194.8z"/>
		<path class="st0" d="M70.8,216.1c0-1.4,1.3-2,4-2.7c0.8-0.2,1.6-0.3,1.8-0.3c0.3,0,0.5,0.1,0.5,0.5l-0.1,2.2c0,0.8,0,1.3-0.6,1.7
			c-0.4,0.3-1.8,0.9-2.7,0.9C71.3,218.3,70.8,216.8,70.8,216.1z M71.1,213.4c-2.9,0.9-3.7,1.7-3.7,3.1c0,1,0.5,1.9,1.4,2.6
			c0.8,0.5,1.8,0.8,3.1,0.8c1.2,0,2.2-0.5,3.2-0.9c0.9-0.4,1.4-0.7,1.7-0.7c0.3,0,0.5,0.3,0.7,0.5c0.8,0.8,1.9,1.1,2.9,1.1
			c2.2,0,3.8-1.4,3.8-1.6c0-0.3-0.1-0.5-0.3-0.5c-0.1,0-0.4,0.1-0.6,0.3c-0.2,0.1-0.7,0.2-1.1,0.2c-1.8,0-2.2-1.5-2.1-3.2l0.3-6.4
			c0.1-2.7-1.4-4.3-4.7-4.3c-3.3,0-8.4,2.6-8.4,4.5c0,0.3,0.2,0.5,0.6,0.5c0.7,0,1.9-0.3,2.6-0.7c0.4-0.2,0.4-0.6,0.5-1.2
			c0.1-1.1,1.6-1.7,2.9-1.7c2.8,0,3.3,1.8,3.3,3.2l0,1.7c-0.1,0.6-0.1,0.9-0.8,1.1L71.1,213.4z"/>
		<path class="st0" d="M92,206.6c-0.8,0-0.8,0.1-0.8,0.9v6.9c0,2.1,0.3,4.1,3.3,4.1c0.5,0,0.9-0.1,1.2-0.2c0.4-0.1,1-0.5,1.1-0.5
			c0.4,0,0.5,0.4,0.4,0.6c-0.8,0.8-2.4,1.7-4.7,1.7c-3.9,0-4.7-1.7-4.7-4v-8.3c0-1,0-1.1-0.9-1.1h-1.3c-0.3-0.1-0.3-0.6-0.1-0.8
			c1.3-0.3,2.4-0.8,2.9-1.2c0.6-0.4,1.4-1.4,1.9-2.1c0.2-0.1,0.8-0.1,1,0.2v1.6c0,0.6,0,0.7,0.8,0.7h5c0.5,0.3,0.4,1.3,0,1.5H92z"/>
		<path class="st0" d="M102.7,216.1c0-1.4,1.3-2,3.9-2.7c0.8-0.2,1.6-0.3,1.9-0.3c0.3,0,0.4,0.1,0.4,0.5l-0.1,2.2
			c0,0.8,0,1.3-0.6,1.7c-0.5,0.3-1.8,0.9-2.7,0.9C103.3,218.3,102.7,216.8,102.7,216.1z M103,213.4c-2.9,0.9-3.7,1.7-3.7,3.1
			c0,1,0.5,1.9,1.4,2.6c0.8,0.5,1.8,0.8,3.1,0.8c1.3,0,2.2-0.5,3.2-0.9c0.9-0.4,1.4-0.7,1.8-0.7c0.3,0,0.5,0.3,0.7,0.5
			c0.8,0.8,1.8,1.1,2.9,1.1c2.2,0,3.8-1.4,3.8-1.6c0-0.3-0.1-0.5-0.3-0.5c-0.1,0-0.4,0.1-0.6,0.3c-0.3,0.1-0.7,0.2-1.1,0.2
			c-1.8,0-2.1-1.5-2.1-3.2l0.3-6.4c0.1-2.7-1.4-4.3-4.7-4.3c-3.3,0-8.4,2.6-8.4,4.5c0,0.3,0.2,0.5,0.6,0.5c0.7,0,1.9-0.3,2.6-0.7
			c0.3-0.2,0.4-0.6,0.4-1.2c0.1-1.1,1.6-1.7,2.9-1.7c2.8,0,3.3,1.8,3.3,3.2l0,1.7c-0.1,0.6-0.1,0.9-0.8,1.1L103,213.4z"/>
		<path class="st0" d="M120.2,209c0-1.4,0-1.6-1.2-2.3l-0.4-0.2c-0.2-0.1-0.2-0.6,0.1-0.6c1-0.3,3.4-1.3,4.5-1.8
			c0.2,0,0.3,0.1,0.3,0.3v2.1c0,0.2,0.1,0.3,0.1,0.3c1.6-1,3.3-2.2,4.9-2.2c1.1,0,2,0.6,2,1.5c0,1.2-1.2,1.7-1.9,1.7
			c-0.4,0-0.7-0.1-1-0.2c-0.7-0.4-1.4-0.6-2-0.6c-0.7,0-1.2,0.3-1.6,0.7c-0.4,0.5-0.6,1.6-0.6,2.8v5c0,2.6,0.1,3.1,1.8,3.2l1.6,0.1
			c0.3,0.2,0.2,0.8-0.1,0.9c-2.1-0.1-3.4-0.1-5-0.1c-1.6,0-3,0-4.1,0.1c-0.3-0.1-0.4-0.8-0.1-0.9l0.9-0.1c1.7-0.2,1.7-0.5,1.7-3.2
			V209z"/>
		<path class="st0" d="M147.7,200.9c0-3.9-0.1-4.5-2.7-4.7l-1.1-0.1c-0.3-0.2-0.2-0.8,0.1-0.9c2.2,0.1,3.8,0.1,5.6,0.1
			c1.8,0,3.3,0,5.6-0.1c0.3,0.1,0.4,0.8,0.1,0.9l-1.1,0.1c-2.6,0.2-2.7,0.8-2.7,4.7v13c0,3.9,0.1,4.4,2.7,4.6l1.1,0.1
			c0.3,0.2,0.2,0.8-0.1,0.9c-2.3-0.1-3.8-0.1-5.6-0.1c-1.9,0-3.4,0-5.6,0.1c-0.3-0.1-0.4-0.7-0.1-0.9l1.1-0.1
			c2.6-0.3,2.7-0.8,2.7-4.6V200.9z"/>
		<path class="st0" d="M161,209c0-1.4,0-1.6-1.2-2.3l-0.4-0.2c-0.2-0.1-0.2-0.6,0-0.6c1-0.3,3.6-1.3,4.5-1.8c0.2,0,0.4,0.1,0.5,0.3
			c-0.1,0.8-0.1,1.4-0.1,1.7c0,0.2,0.2,0.4,0.5,0.4c1.9-0.9,4-1.9,6.3-1.9c3.7,0,5.3,2.1,5.3,4.5v6.3c0,2.6,0.1,3,1.7,3.2l1,0.1
			c0.3,0.2,0.2,0.8-0.1,0.9c-1.3-0.1-2.6-0.1-4.2-0.1c-1.6,0-3,0-4.2,0.1c-0.3-0.1-0.4-0.8-0.1-0.9l0.9-0.1c1.7-0.2,1.7-0.5,1.7-3.2
			v-5.5c0-2.1-1.2-3.6-4.2-3.6c-1.7,0-3.2,0.6-3.8,1.3c-0.6,0.6-0.7,1.1-0.7,2.2v5.6c0,2.6,0.1,3,1.7,3.2l0.8,0.1
			c0.3,0.2,0.2,0.8-0.1,0.9c-1.2-0.1-2.5-0.1-4.1-0.1c-1.6,0-3,0-4.2,0.1c-0.3-0.1-0.4-0.8-0.1-0.9l1-0.1c1.6-0.2,1.7-0.5,1.7-3.2
			V209z"/>
		<path class="st0" d="M192.5,205.2c0.4,0.8,0.7,2,0.7,3c-0.2,0.2-0.9,0.3-1.1,0.1c-0.8-1.6-2.1-2.7-3.9-2.7c-1.8,0-2.9,1-2.9,2.2
			c0,1.5,1.9,2.3,3.5,3c2.4,1.1,4.6,2.3,4.6,4.9c0,2.8-3.2,4.2-6.5,4.2c-2.1,0-3.7-0.4-4.8-1.1c-0.4-0.7-0.6-2.5-0.5-3.7
			c0.2-0.2,0.8-0.3,1-0.1c0.8,2,2.2,3.8,4.8,3.8c1.6,0,3-0.8,3-2.4c0-1.7-1.8-2.6-3.4-3.4c-2.6-1.2-4.5-2.4-4.5-4.5
			c0-2.7,2.7-4.2,6.1-4.2C190.4,204.5,192.1,204.9,192.5,205.2z"/>
		<path class="st0" d="M201.8,214.1c0,2.5,0.8,4.2,4.2,4.2c1.2,0,2.7-0.4,3.6-1.1c0.6-0.4,0.9-1,0.9-2.1v-6c0-2.4-0.3-2.4-1.6-2.9
			l-0.6-0.2c-0.3-0.1-0.3-0.7,0-0.8c1.8,0,4.3-0.3,5.3-0.6c0.2,0,0.3,0.1,0.4,0.3c-0.1,0.7-0.1,1.8-0.1,3.2v6.1c0,2.9,0.1,4,1.4,4
			c0.5,0,1.1-0.1,1.8-0.2c0.3,0.2,0.3,0.9,0,1c-1.7,0.3-4.4,0.7-5.9,1.3c-0.2,0-0.5-0.1-0.5-0.2v-1.5c0-0.3-0.1-0.5-0.4-0.5
			c-1.3,0.7-3.5,1.9-6.2,1.9c-3.9,0-5.4-1.6-5.4-4.5v-6.1c0-2.3,0-2.6-1.4-3.1l-0.5-0.2c-0.3-0.2-0.2-0.7,0.1-0.8
			c2.1,0,3.8-0.4,4.8-0.6c0.3,0,0.4,0.1,0.5,0.3c-0.1,0.6-0.2,1.4-0.2,3.2V214.1z"/>
		<path class="st0" d="M222.1,209c0-1.4,0-1.6-1.2-2.3l-0.4-0.2c-0.2-0.1-0.2-0.6,0-0.6c1-0.3,3.4-1.3,4.6-1.8
			c0.2,0,0.4,0.1,0.4,0.3v2.1c0,0.2,0,0.3,0.1,0.3c1.6-1,3.3-2.2,4.9-2.2c1.1,0,2,0.6,2,1.5c0,1.2-1.2,1.7-1.9,1.7
			c-0.5,0-0.7-0.1-1-0.2c-0.7-0.4-1.3-0.6-2-0.6c-0.7,0-1.3,0.3-1.6,0.7c-0.4,0.5-0.6,1.6-0.6,2.8v5c0,2.6,0.1,3.1,1.8,3.2l1.6,0.1
			c0.3,0.2,0.2,0.8-0.1,0.9c-2.1-0.1-3.4-0.1-5-0.1c-1.6,0-3,0-4.1,0.1c-0.3-0.1-0.4-0.8-0.1-0.9l0.8-0.1c1.7-0.2,1.7-0.5,1.7-3.2
			V209z"/>
		<path class="st0" d="M237.6,216.1c0-1.4,1.3-2,4-2.7c0.8-0.2,1.6-0.3,1.8-0.3c0.3,0,0.4,0.1,0.4,0.5l-0.1,2.2c0,0.8,0,1.3-0.6,1.7
			c-0.4,0.3-1.8,0.9-2.7,0.9C238.2,218.3,237.6,216.8,237.6,216.1z M237.9,213.4c-2.9,0.9-3.7,1.7-3.7,3.1c0,1,0.5,1.9,1.4,2.6
			c0.8,0.5,1.8,0.8,3.1,0.8c1.3,0,2.2-0.5,3.2-0.9c0.9-0.4,1.4-0.7,1.7-0.7c0.3,0,0.5,0.3,0.7,0.5c0.8,0.8,1.8,1.1,2.9,1.1
			c2.2,0,3.8-1.4,3.8-1.6c0-0.3-0.1-0.5-0.3-0.5c-0.1,0-0.4,0.1-0.6,0.3c-0.3,0.1-0.7,0.2-1.1,0.2c-1.8,0-2.2-1.5-2.1-3.2l0.3-6.4
			c0.1-2.7-1.4-4.3-4.7-4.3c-3.3,0-8.4,2.6-8.4,4.5c0,0.3,0.2,0.5,0.6,0.5c0.7,0,1.9-0.3,2.6-0.7c0.4-0.2,0.4-0.6,0.5-1.2
			c0.1-1.1,1.6-1.7,2.9-1.7c2.8,0,3.3,1.8,3.3,3.2l0,1.7c0,0.6-0.1,0.9-0.8,1.1L237.9,213.4z"/>
		<path class="st0" d="M255.1,209c0-1.4,0-1.6-1.2-2.3l-0.4-0.2c-0.2-0.1-0.2-0.6,0-0.6c1-0.3,3.6-1.3,4.5-1.8
			c0.2,0,0.4,0.1,0.5,0.3c-0.1,0.8-0.1,1.4-0.1,1.7c0,0.2,0.2,0.4,0.5,0.4c1.9-0.9,4-1.9,6.3-1.9c3.7,0,5.2,2.1,5.2,4.5v6.3
			c0,2.6,0.1,3,1.7,3.2l1,0.1c0.3,0.2,0.2,0.8-0.1,0.9c-1.3-0.1-2.6-0.1-4.2-0.1c-1.6,0-3,0-4.2,0.1c-0.3-0.1-0.4-0.8-0.1-0.9
			l0.9-0.1c1.7-0.2,1.7-0.5,1.7-3.2v-5.5c0-2.1-1.2-3.6-4.2-3.6c-1.7,0-3.2,0.6-3.8,1.3c-0.6,0.6-0.7,1.1-0.7,2.2v5.6
			c0,2.6,0.1,3,1.7,3.2l0.8,0.1c0.3,0.2,0.2,0.8-0.1,0.9c-1.2-0.1-2.5-0.1-4.1-0.1c-1.6,0-3,0-4.2,0.1c-0.3-0.1-0.4-0.8-0.1-0.9
			l0.9-0.1c1.7-0.2,1.7-0.5,1.7-3.2V209z"/>
		<path class="st0" d="M290.8,205.2c0.4,0.2,0.7,0.8,0.7,1.5c0,0.7-0.4,1.4-1,1.4c-0.2,0-0.5-0.1-0.6-0.3c-1-1-2.6-2-4.5-2
			c-3.1,0-6.2,2-6.2,5.9c0,2.8,2.4,6.3,7.2,6.3c2.6,0,4-1,5-2.2c0.4-0.1,0.8,0.2,0.8,0.5c-1.5,2.7-4.9,3.7-7.5,3.7
			c-2.4,0-4.6-0.6-6.2-1.9c-1.6-1.2-2.6-3-2.6-5.4c0-3.9,3.4-8.1,10.9-8.1C287.8,204.5,289.6,204.7,290.8,205.2z"/>
		<path class="st0" d="M297.7,209c-0.3,0-0.3-0.1-0.3-0.2c0-1.2,2.3-3.2,5-3.2c2.6,0,3.4,1.3,3.4,2.3c0,0.4-0.1,0.6-0.3,0.7
			c-0.4,0.2-1.4,0.4-4.7,0.4H297.7z M306.4,210.1c1.9,0,2.5-0.1,2.7-0.3c0.1-0.1,0.2-0.5,0.2-1c0-2.2-2.5-4.3-6.4-4.3
			c-5.4,0-9,3.8-9,8.3c0,1.6,0.5,3.3,1.9,4.8c1.3,1.4,3.6,2.4,6.5,2.4c2.3,0,5.6-0.9,7.1-3.4c-0.1-0.3-0.4-0.6-0.8-0.4
			c-1.4,1.4-2.7,1.8-4.1,1.8c-4.8,0-7.5-3.2-7.5-6.9c0-0.9,0-1,1.2-1H306.4z"/>
		<path class="st0" d="M328.9,197.9c3.3-2.1,7.5-3.1,12.1-3.1c2.4,0,5.8,0.4,7.9,0.9c0.6,0.1,0.9,0.2,1.3,0.1c0,0.8,0.3,3.1,0.6,5.4
			c-0.2,0.3-0.9,0.3-1.2,0.1c-0.7-2.5-2.7-5.3-9.2-5.3c-6.9,0-12.7,3.5-12.7,11.1c0,7.7,6,11.9,13.4,11.9c5.8,0,8.4-3.1,9.4-5.2
			c0.3-0.2,1-0.1,1.2,0.1c-0.3,1.9-1.5,4.4-2.1,5c-0.5,0.1-1.1,0.2-1.6,0.4c-1,0.3-4.2,0.8-7.1,0.8c-4,0-7.9-0.6-11.2-2.4
			c-3.6-2-6.4-5.3-6.4-10.1C323.3,203.5,325.5,200,328.9,197.9z"/>
		<path class="st0" d="M368.9,212.7c0,2.8-1.2,6.2-5.2,6.2c-3.9,0-5.8-3.6-5.8-6.9c0-4,2.2-6.3,5.2-6.3
			C367.4,205.7,368.9,209.6,368.9,212.7z M363.7,204.5c-5.3,0-9.6,3.3-9.6,7.9c0,4.6,4,7.5,9.2,7.5c5.6,0,9.5-3.3,9.5-7.9
			C372.8,207.6,368.7,204.5,363.7,204.5z"/>
		<path class="st0" d="M402.6,210.1c0-2.5-1.4-3.8-4.2-3.8c-1.7,0-3.1,0.6-3.7,1.3c-0.5,0.5-0.7,0.9-0.7,2.2v5.6
			c0,2.6,0.1,3,1.7,3.2l0.9,0.1c0.3,0.2,0.2,0.8-0.1,0.9c-1.4-0.1-2.7-0.1-4.2-0.1c-1.6,0-2.9,0-4.1,0.1c-0.3-0.1-0.4-0.8-0.1-0.9
			l0.8-0.1c1.7-0.2,1.7-0.5,1.7-3.2v-5.3c0-2.4-1.3-3.8-4.1-3.8c-1.8,0-3.1,0.7-3.8,1.3c-0.4,0.4-0.7,0.9-0.7,2.1v5.6
			c0,2.6,0.1,3,1.7,3.2l0.8,0.1c0.3,0.2,0.2,0.8-0.1,0.9c-1.2-0.1-2.5-0.1-4.1-0.1c-1.6,0-3,0-4.4,0.1c-0.3-0.1-0.4-0.8-0.1-0.9
			l1.1-0.1c1.7-0.2,1.7-0.5,1.7-3.2V209c0-1.4,0-1.6-1.2-2.3l-0.4-0.2c-0.2-0.1-0.2-0.6,0-0.6c1-0.3,3.6-1.3,4.5-1.8
			c0.2,0,0.4,0.1,0.5,0.3c-0.1,0.8-0.1,1.4-0.1,1.7c0,0.2,0.2,0.4,0.5,0.4c1.7-1,3.8-1.9,6-1.9c2.2,0,3.5,0.6,4.8,2.2
			c0.4,0.1,0.7-0.1,1.1-0.3c1.8-1,4-1.9,6.1-1.9c3.6,0,5.3,2,5.3,4.5v6.3c0,2.6,0.1,3,1.7,3.2l1.1,0.1c0.3,0.2,0.2,0.8-0.1,0.9
			c-1.5-0.1-2.8-0.1-4.4-0.1c-1.6,0-2.8,0-4.1,0.1c-0.3-0.1-0.4-0.8-0.1-0.9l0.8-0.1c1.7-0.2,1.7-0.5,1.7-3.2V210.1z"/>
		<path class="st0" d="M416.8,209.5c0-1.2,0.1-1.7,0.5-2.2c0.5-0.4,1.9-1,3.8-1c4,0,6.1,3,6.1,5.9c0,3.8-2.1,6.5-5.8,6.5
			c-0.9,0-2.3-0.2-3.2-0.8c-0.9-0.6-1.3-1-1.3-2.2V209.5z M413.5,224.7c0,2.6,0,3-1.7,3.2l-1,0.1c-0.3,0.2-0.2,0.8,0.1,0.9
			c1.3-0.1,2.6-0.1,4.2-0.1c1.6,0,2.9,0,5,0.1c0.3-0.1,0.4-0.7,0.1-0.9l-1.8-0.2c-1.6-0.1-1.7-0.5-1.7-3.1v-3.8c0-0.8,0.2-1,0.6-1
			c0.4,0.1,1.7,0.1,2.5,0.1c6.4,0,11-3.7,11-8.7c0-3.7-2.9-6.7-7.4-6.7c-2.9,0-5.7,1.5-6.3,1.7c-0.3,0-0.4-0.2-0.4-0.5
			c0-0.5,0.1-1,0.2-1.7c-0.1-0.2-0.3-0.3-0.5-0.3c-1.2,0.7-3.3,1.6-4.5,2c-0.2,0.1-0.2,0.5,0,0.6l0.4,0.2c1.2,0.6,1.2,0.8,1.2,2.3
			V224.7z"/>
		<path class="st0" d="M437.5,216.1c0-1.4,1.3-2,3.9-2.7c0.8-0.2,1.6-0.3,1.8-0.3c0.3,0,0.5,0.1,0.5,0.5l-0.1,2.2
			c0,0.8,0,1.3-0.6,1.7c-0.5,0.3-1.8,0.9-2.7,0.9C438,218.3,437.5,216.8,437.5,216.1z M437.8,213.4c-2.9,0.9-3.7,1.7-3.7,3.1
			c0,1,0.5,1.9,1.4,2.6c0.8,0.5,1.8,0.8,3.2,0.8c1.2,0,2.2-0.5,3.2-0.9c0.9-0.4,1.4-0.7,1.8-0.7c0.3,0,0.5,0.3,0.7,0.5
			c0.7,0.8,1.8,1.1,2.9,1.1c2.2,0,3.8-1.4,3.8-1.6c0-0.3-0.1-0.5-0.3-0.5c-0.1,0-0.4,0.1-0.6,0.3c-0.3,0.1-0.7,0.2-1.1,0.2
			c-1.7,0-2.2-1.5-2.1-3.2l0.3-6.4c0.1-2.7-1.4-4.3-4.7-4.3c-3.3,0-8.4,2.6-8.4,4.5c0,0.3,0.2,0.5,0.6,0.5c0.7,0,1.9-0.3,2.6-0.7
			c0.4-0.2,0.4-0.6,0.4-1.2c0.1-1.1,1.6-1.7,2.9-1.7c2.8,0,3.3,1.8,3.3,3.2l0,1.7c0,0.6-0.1,0.9-0.8,1.1L437.8,213.4z"/>
		<path class="st0" d="M455,209c0-1.4,0-1.6-1.2-2.3l-0.4-0.2c-0.2-0.1-0.2-0.6,0-0.6c1-0.3,3.6-1.3,4.5-1.8c0.2,0,0.4,0.1,0.5,0.3
			c-0.1,0.8-0.1,1.4-0.1,1.7c0,0.2,0.2,0.4,0.5,0.4c1.9-0.9,4-1.9,6.3-1.9c3.7,0,5.3,2.1,5.3,4.5v6.3c0,2.6,0.1,3,1.7,3.2l1,0.1
			c0.3,0.2,0.2,0.8-0.1,0.9c-1.3-0.1-2.6-0.1-4.2-0.1c-1.6,0-2.9,0-4.2,0.1c-0.3-0.1-0.4-0.8-0.1-0.9l0.9-0.1
			c1.7-0.2,1.7-0.5,1.7-3.2v-5.5c0-2.1-1.2-3.6-4.2-3.6c-1.7,0-3.2,0.6-3.8,1.3c-0.6,0.6-0.7,1.1-0.7,2.2v5.6c0,2.6,0.1,3,1.7,3.2
			l0.8,0.1c0.3,0.2,0.2,0.8-0.1,0.9c-1.2-0.1-2.5-0.1-4.1-0.1c-1.6,0-3,0-4.2,0.1c-0.3-0.1-0.4-0.8-0.1-0.9l0.9-0.1
			c1.7-0.2,1.7-0.5,1.7-3.2V209z"/>
		<path class="st0" d="M475.3,227c0-1,0.8-1.5,1.8-1.5h0.8c0.7,0,1.2-0.2,1.5-0.6c1.3-1.7,2.2-3.2,2.6-4c0.1-0.3,0.5-1.1,0.5-1.6
			c0-0.7-0.2-1.2-0.8-2.5l-3.5-7.8c-0.8-1.7-1.1-2.6-2.7-2.8l-1.1-0.2c-0.3-0.2-0.2-0.8,0.1-0.9c1.4,0.1,2.8,0.1,4.3,0.1
			c1.2,0,2.5-0.1,3.9-0.1c0.4,0.1,0.4,0.8,0.1,0.9l-1.1,0.2c-0.6,0.1-1,0.2-1,0.5c0,0.4,1,2.8,1.3,3.4l1.4,3.3
			c0.3,0.6,1.1,2.5,1.3,2.6c0.1-0.1,0.9-1.2,1.7-2.7l1.5-2.9c1-1.9,1.6-3.2,1.6-3.7c0-0.2-0.3-0.5-1.1-0.6l-1.4-0.2
			c-0.3-0.2-0.3-0.8,0.1-0.9c1.4,0.1,2.8,0.1,4,0.1c1.1,0,2.2-0.1,3.4-0.1c0.4,0.2,0.4,0.7,0.1,0.9l-0.8,0.1
			c-1.5,0.2-2.3,1.3-3.8,3.9l-2.5,4.2c-1.5,2.4-5.2,8.8-7.4,12.8c-0.8,1.4-1.9,1.7-2.9,1.7C475.9,228.5,475.3,227.9,475.3,227z"/>
	</g>
</g>
</svg>
